<svg width="139" height="106" viewBox="0 0 139 106" fill="none" xmlns="http://www.w3.org/2000/svg">
<g clip-path="url(#clip0_2158_1112)">
<path d="M33.7124 37.2921L12.2073 30.8306" stroke="#FFCC40" stroke-width="3" stroke-miterlimit="10"/>
<path d="M72.8101 26.5549L85.0491 7.7897" stroke="#FFCC40" stroke-width="3" stroke-miterlimit="10"/>
<path d="M38.1385 31.0922L21.8774 15.9067" stroke="#FFCC40" stroke-width="3" stroke-miterlimit="10"/>
<path d="M52.7437 1.61816L54.7914 22.8061" stroke="#FFCC40" stroke-width="3" stroke-miterlimit="10"/>
<path d="M47.0566 25.6257L34.3276 5.35645" stroke="#FFCC40" stroke-width="3" stroke-miterlimit="10"/>
<path d="M87.253 45.0776L113.734 45.305" stroke="#FFCC40" stroke-width="3" stroke-miterlimit="10"/>
<path d="M79.8837 31.3631L97.5116 19.521" stroke="#FFCC40" stroke-width="3" stroke-miterlimit="10"/>
<path d="M63.7046 22.5432L69.6266 1.42845" stroke="#FFCC40" stroke-width="3" stroke-miterlimit="10"/>
<path d="M85.4985 39.1534L105.879 33.2103L85.4985 39.1534Z" fill="white"/>
<path d="M85.4985 39.1534L105.879 33.2103" stroke="#FFCC40" stroke-width="3" stroke-miterlimit="10"/>
<path d="M4.75562 43.771L31.226 44.5684" stroke="#FFCC40" stroke-width="3" stroke-miterlimit="10"/>
</g>
<path d="M9.31445 98.9023H3.17188V84.7227H9.20703C10.5026 84.7227 11.528 85.0384 12.2832 85.6699C13.0384 86.2949 13.416 87.1413 13.416 88.209C13.416 88.9707 13.1751 89.6348 12.6934 90.2012C12.2116 90.7611 11.668 91.0931 11.0625 91.1973V91.5195C11.5768 91.5651 12.0684 91.7376 12.5371 92.0371C13.0124 92.3366 13.39 92.7337 13.6699 93.2285C13.9499 93.7168 14.0898 94.2702 14.0898 94.8887C14.0898 96.1126 13.6634 97.0892 12.8105 97.8184C11.9577 98.541 10.7923 98.9023 9.31445 98.9023ZM5.92578 86.7734V90.6992H8.14258C9.80273 90.6992 10.6589 90.0254 10.7109 88.6777C10.7109 87.4408 9.95573 86.806 8.44531 86.7734H5.92578ZM5.92578 96.8516H8.5625C10.3594 96.8516 11.2643 96.1159 11.2773 94.6445C11.2773 93.2188 10.3496 92.4993 8.49414 92.4863H5.92578V96.8516ZM15.5254 98.9023V88.4141H18.084V90.0449H18.3965C18.5462 89.5241 18.8262 89.0944 19.2363 88.7559C19.6465 88.4173 20.1445 88.248 20.7305 88.248C21.0495 88.248 21.2871 88.2741 21.4434 88.3262V90.6797C21.248 90.5951 20.9355 90.5527 20.5059 90.5527C19.7637 90.5527 19.1908 90.7708 18.7871 91.207C18.3835 91.6367 18.1816 92.2454 18.1816 93.0332V98.9023H15.5254ZM26.5605 97.1543C27.2116 97.1543 27.7682 96.9622 28.2305 96.5781C28.6927 96.194 28.9238 95.696 28.9238 95.084V94.2051L26.6191 94.3418C26.0527 94.3939 25.6165 94.5404 25.3105 94.7812C25.0046 95.0221 24.8516 95.3509 24.8516 95.7676C24.8516 96.2038 25.0078 96.5456 25.3203 96.793C25.6328 97.0339 26.0462 97.1543 26.5605 97.1543ZM25.623 99.0684C24.9785 99.0684 24.3991 98.9349 23.8848 98.668C23.3704 98.401 22.9635 98.0332 22.6641 97.5645C22.3646 97.0892 22.2148 96.5423 22.2148 95.9238C22.2148 94.9928 22.5566 94.2604 23.2402 93.7266C23.9238 93.1927 24.9069 92.8835 26.1895 92.7988L28.9238 92.6328V91.832C28.9238 90.7578 28.3053 90.2012 27.0684 90.1621C26.5085 90.1621 26.0592 90.2923 25.7207 90.5527C25.3822 90.8132 25.1771 91.1257 25.1055 91.4902H22.6836C22.7422 90.5592 23.1686 89.7747 23.9629 89.1367C24.7572 88.4987 25.8346 88.1797 27.1953 88.1797C28.5104 88.1797 29.5618 88.502 30.3496 89.1465C31.1374 89.7845 31.5312 90.6211 31.5312 91.6562V98.9023H28.9727V97.5547H28.6016C28.3802 97.9583 27.9863 98.3132 27.4199 98.6191C26.8535 98.9186 26.2546 99.0684 25.623 99.0684ZM33.4258 98.9023V88.4141H36.082V98.9023H33.4258ZM34.7539 87.0469C34.3568 87.0469 34.0182 86.9102 33.7383 86.6367C33.4648 86.3568 33.3281 86.0247 33.3281 85.6406C33.3281 85.25 33.4648 84.918 33.7383 84.6445C34.0182 84.3711 34.3568 84.2344 34.7539 84.2344C35.151 84.2344 35.4863 84.3711 35.7598 84.6445C36.0397 84.918 36.1797 85.25 36.1797 85.6406C36.1797 86.0247 36.0397 86.3568 35.7598 86.6367C35.4863 86.9102 35.151 87.0469 34.7539 87.0469ZM38.0547 98.9023V84.7227H40.7109V98.9023H38.0547ZM42.7031 98.9023V84.7227H45.3594V98.9023H42.7031ZM51.8828 90.1426C51.2253 90.1426 50.6849 90.3607 50.2617 90.7969C49.8451 91.2266 49.6009 91.8385 49.5293 92.6328H54.1875C54.1354 91.8255 53.9043 91.2103 53.4941 90.7871C53.0905 90.3574 52.5534 90.1426 51.8828 90.1426ZM54.1875 95.8262H56.6191C56.4694 96.7572 55.9714 97.5417 55.125 98.1797C54.2786 98.8112 53.224 99.127 51.9609 99.127C50.3854 99.127 49.1484 98.6419 48.25 97.6719C47.3516 96.7018 46.9023 95.3802 46.9023 93.707C46.9023 92.5872 47.1042 91.6139 47.5078 90.7871C47.918 89.9603 48.4909 89.319 49.2266 88.8633C49.9688 88.4076 50.8444 88.1797 51.8535 88.1797C52.8431 88.1797 53.7025 88.3978 54.4316 88.834C55.1608 89.2637 55.724 89.8724 56.1211 90.6602C56.5247 91.4479 56.7266 92.3724 56.7266 93.4336V94.2246H49.5098V94.498C49.5098 95.2923 49.7344 95.9368 50.1836 96.4316C50.6393 96.9199 51.248 97.1641 52.0098 97.1641C52.5566 97.1641 53.0254 97.0371 53.416 96.7832C53.8066 96.5228 54.0638 96.2038 54.1875 95.8262Z" fill="url(#paint0_linear_2158_1112)"/>
<path d="M62.1719 85.7227H67.8066C68.7507 85.7227 69.5807 85.9245 70.2969 86.3281C71.013 86.7318 71.5729 87.2949 71.9766 88.0176C72.3867 88.7337 72.5918 89.5768 72.5918 90.5469C72.5918 91.5104 72.3802 92.3535 71.957 93.0762C71.5404 93.7923 70.9609 94.3555 70.2188 94.7656C69.4831 95.1693 68.6302 95.3711 67.6602 95.3711H64.9258V99.9023H62.1719V85.7227ZM64.9258 87.9102V93.2129H67.0156C67.8945 93.2129 68.5749 92.985 69.0566 92.5293C69.5449 92.0736 69.7891 91.416 69.7891 90.5566C69.7891 89.7038 69.5482 89.0495 69.0664 88.5938C68.5846 88.138 67.9043 87.9102 67.0254 87.9102H64.9258ZM74.1641 99.9023V85.7227H76.8203V99.9023H74.1641ZM82.6895 98.1543C83.3405 98.1543 83.8971 97.9622 84.3594 97.5781C84.8216 97.194 85.0527 96.696 85.0527 96.084V95.2051L82.748 95.3418C82.1816 95.3939 81.7454 95.5404 81.4395 95.7812C81.1335 96.0221 80.9805 96.3509 80.9805 96.7676C80.9805 97.2038 81.1367 97.5456 81.4492 97.793C81.7617 98.0339 82.1751 98.1543 82.6895 98.1543ZM81.752 100.068C81.1074 100.068 80.528 99.9349 80.0137 99.668C79.4993 99.401 79.0924 99.0332 78.793 98.5645C78.4935 98.0892 78.3438 97.5423 78.3438 96.9238C78.3438 95.9928 78.6855 95.2604 79.3691 94.7266C80.0527 94.1927 81.0358 93.8835 82.3184 93.7988L85.0527 93.6328V92.832C85.0527 91.7578 84.4342 91.2012 83.1973 91.1621C82.6374 91.1621 82.1882 91.2923 81.8496 91.5527C81.5111 91.8132 81.306 92.1257 81.2344 92.4902H78.8125C78.8711 91.5592 79.2975 90.7747 80.0918 90.1367C80.8861 89.4987 81.9635 89.1797 83.3242 89.1797C84.6393 89.1797 85.6908 89.502 86.4785 90.1465C87.2663 90.7845 87.6602 91.6211 87.6602 92.6562V99.9023H85.1016V98.5547H84.7305C84.5091 98.9583 84.1152 99.3132 83.5488 99.6191C82.9824 99.9186 82.3835 100.068 81.752 100.068ZM90.2676 86.9531H92.9238V89.4141H94.8574V91.416H92.9238V96.6211C92.9238 97.0573 93.0312 97.3828 93.2461 97.5977C93.4674 97.8125 93.8027 97.9199 94.252 97.9199C94.5124 97.9199 94.7109 97.9102 94.8477 97.8906V99.8438C94.5742 99.9089 94.1543 99.9414 93.5879 99.9414C92.3835 99.9414 91.5273 99.7233 91.0195 99.2871C90.5182 98.8444 90.2676 98.1217 90.2676 97.1191V91.416H88.793V89.4141H90.2676V86.9531ZM97.1816 99.9023V91.416H95.7559V89.4629H97.1816V88.5645C97.1816 87.5553 97.4355 86.8066 97.9434 86.3184C98.4577 85.8301 99.3203 85.5859 100.531 85.5859C101.052 85.5859 101.505 85.625 101.889 85.7031V87.4316C101.732 87.4056 101.508 87.3926 101.215 87.3926C100.714 87.3926 100.346 87.5 100.111 87.7148C99.8835 87.9297 99.7695 88.2454 99.7695 88.6621V89.4629H101.85V91.416H99.8379V99.9023H97.1816ZM108.061 100.127C107.025 100.127 106.127 99.9121 105.365 99.4824C104.61 99.0462 104.021 98.418 103.598 97.5977C103.181 96.7773 102.973 95.7943 102.973 94.6484C102.973 93.5156 103.184 92.5423 103.607 91.7285C104.031 90.9082 104.62 90.2799 105.375 89.8438C106.137 89.401 107.032 89.1797 108.061 89.1797C109.089 89.1797 109.981 89.3978 110.736 89.834C111.498 90.2702 112.09 90.8984 112.514 91.7188C112.937 92.5326 113.148 93.5091 113.148 94.6484C113.148 95.8008 112.937 96.7871 112.514 97.6074C112.097 98.4212 111.508 99.0462 110.746 99.4824C109.991 99.9121 109.096 100.127 108.061 100.127ZM108.061 98.0957C108.803 98.0957 109.385 97.7962 109.809 97.1973C110.232 96.5983 110.443 95.752 110.443 94.6582C110.443 93.571 110.229 92.7246 109.799 92.1191C109.376 91.5137 108.796 91.2109 108.061 91.2109C107.325 91.2109 106.742 91.5137 106.312 92.1191C105.883 92.7246 105.668 93.571 105.668 94.6582C105.668 95.752 105.88 96.5983 106.303 97.1973C106.732 97.7962 107.318 98.0957 108.061 98.0957ZM114.623 99.9023V89.4141H117.182V91.0449H117.494C117.644 90.5241 117.924 90.0944 118.334 89.7559C118.744 89.4173 119.242 89.248 119.828 89.248C120.147 89.248 120.385 89.2741 120.541 89.3262V91.6797C120.346 91.5951 120.033 91.5527 119.604 91.5527C118.861 91.5527 118.288 91.7708 117.885 92.207C117.481 92.6367 117.279 93.2454 117.279 94.0332V99.9023H114.623ZM121.713 99.9023V89.4141H124.271V91.0547H124.604C124.773 90.5729 125.111 90.1465 125.619 89.7754C126.127 89.4043 126.726 89.2188 127.416 89.2188C128.145 89.2188 128.751 89.401 129.232 89.7656C129.721 90.1237 130.04 90.5729 130.189 91.1133H130.57C130.759 90.599 131.133 90.1562 131.693 89.7852C132.253 89.4076 132.904 89.2188 133.646 89.2188C134.636 89.2188 135.437 89.541 136.049 90.1855C136.667 90.8236 136.977 91.6634 136.977 92.7051V99.9023H134.32V93.4375C134.32 92.1094 133.718 91.4388 132.514 91.4258C131.934 91.4258 131.472 91.6178 131.127 92.002C130.788 92.3861 130.619 92.8906 130.619 93.5156V99.9023H128.07V93.3398C128.07 92.7409 127.914 92.2721 127.602 91.9336C127.289 91.5951 126.85 91.4258 126.283 91.4258C125.704 91.4258 125.238 91.6243 124.887 92.0215C124.542 92.4121 124.369 92.9232 124.369 93.5547V99.9023H121.713Z" fill="url(#paint1_linear_2158_1112)"/>
<path d="M63.668 63.0547L60.4219 62.6562C59.3203 62.5156 58.4922 62.6836 57.9375 63.1602C57.3906 63.6367 57.1523 64.2656 57.2227 65.0469C57.2617 65.5391 57.4258 65.9609 57.7148 66.3125C58.0117 66.6562 58.4141 66.9141 58.9219 67.0859C59.4375 67.2578 60.0352 67.3086 60.7148 67.2383C61.7773 67.1523 62.5547 66.8203 63.0469 66.2422C63.5469 65.6641 63.7539 64.8242 63.668 63.7227V63.0547ZM64.0898 69.1484C63.2227 69.8359 62.1797 70.2344 60.9609 70.3438C59.8125 70.4375 58.7617 70.2891 57.8086 69.8984C56.8633 69.5 56.0977 68.9023 55.5117 68.1055C54.9258 67.3008 54.582 66.3594 54.4805 65.2812C54.3867 64.1953 54.5586 63.207 54.9961 62.3164C55.4414 61.418 56.1289 60.6875 57.0586 60.125C57.9883 59.5625 59.0859 59.3672 60.3516 59.5391L63.5742 59.9609V58.8242H66.4102V65.832C66.4102 66.8164 66.6328 67.5469 67.0781 68.0234C67.5312 68.4922 68.1836 68.7266 69.0352 68.7266H69.4453L69.9492 68.9961V71.2461L69.4336 71.4688H68.4961C67.3867 71.4688 66.4336 71.2266 65.6367 70.7422C64.9258 70.3203 64.4102 69.7891 64.0898 69.1484ZM59.0039 57.1602C58.5664 57.1602 58.1914 57.0078 57.8789 56.7031C57.5664 56.3906 57.4102 56.0195 57.4102 55.5898C57.4102 55.1523 57.5664 54.7812 57.8789 54.4766C58.1914 54.1641 58.5664 54.0078 59.0039 54.0078C59.4492 54.0078 59.8281 54.1641 60.1406 54.4766C60.4531 54.7812 60.6094 55.1523 60.6094 55.5898C60.6094 56.0273 60.4492 56.3984 60.1289 56.7031C59.8164 57.0078 59.4414 57.1602 59.0039 57.1602ZM63.2344 57.1602C62.7969 57.1602 62.4219 57.0078 62.1094 56.7031C61.7969 56.3906 61.6406 56.0195 61.6406 55.5898C61.6406 55.1523 61.7969 54.7812 62.1094 54.4766C62.4219 54.1641 62.7969 54.0078 63.2344 54.0078C63.6797 54.0078 64.0586 54.1641 64.3711 54.4766C64.6836 54.7812 64.8398 55.1523 64.8398 55.5898C64.8398 56.0273 64.6797 56.3984 64.3594 56.7031C64.0469 57.0078 63.6719 57.1602 63.2344 57.1602ZM84.4219 66.207C84.4219 65.3945 84.2148 64.7812 83.8008 64.3672C83.3867 63.9453 82.75 63.8242 81.8906 64.0039L73.7227 65.9492V68.7266H81.7266C82.6719 68.7266 83.3555 68.5117 83.7773 68.082C84.207 67.6523 84.4219 67.0273 84.4219 66.207ZM68.7539 71.4688L68.2266 71.2461V68.9492L68.7539 68.7266H70.6172V60.9688H73.793V62.9141L81.7266 60.9805C83.5859 60.6289 85.0156 61.0039 86.0156 62.1055C87.0234 63.207 87.5273 64.5742 87.5273 66.207C87.5273 66.9805 87.418 67.6758 87.1992 68.293C87.6211 68.582 88.1719 68.7266 88.8516 68.7266H89.5312L89.9414 68.9727V71.2578L89.5195 71.4688H88.3477C87.2773 71.4688 86.3594 71.2383 85.5938 70.7773L85.3359 70.6133C84.4062 71.1836 83.2031 71.4688 81.7266 71.4688H68.7539ZM98.5547 68.9961V71.2461L98.0273 71.4688H97.1016C96.3047 71.4688 95.5078 71.2305 94.7109 70.7539C93.9141 70.2695 93.3086 69.5391 92.8945 68.5625H93.7734C93.4453 69.5234 92.9414 70.25 92.2617 70.7422C91.582 71.2266 90.5938 71.4688 89.2969 71.4688H88.9102L88.3828 71.2461V68.9492L88.9102 68.7266H89.2969C90.1562 68.7266 90.8047 68.4961 91.2422 68.0352C91.6797 67.5664 91.8711 66.8398 91.8164 65.8555V60.9688H95.1211V65.8555C95.0664 66.8398 95.2578 67.5664 95.6953 68.0352C96.1328 68.4961 96.7812 68.7266 97.6406 68.7266H98.0391L98.5547 68.9961ZM93.6211 59.5039C93.1836 59.5039 92.8086 59.3516 92.4961 59.0469C92.1836 58.7344 92.0273 58.3633 92.0273 57.9336C92.0273 57.4961 92.1836 57.125 92.4961 56.8203C92.8086 56.5078 93.1836 56.3516 93.6211 56.3516C94.0664 56.3516 94.4453 56.5078 94.7578 56.8203C95.0703 57.125 95.2266 57.4961 95.2266 57.9336C95.2266 58.3711 95.0664 58.7422 94.7461 59.0469C94.4336 59.3516 94.0586 59.5039 93.6211 59.5039ZM103.523 63.7109L103.371 64.3672C103.129 65.4297 103.211 66.2852 103.617 66.9336C104.031 67.5742 104.762 68.0117 105.809 68.2461C106.465 68.3945 107.059 68.4219 107.59 68.3281C108.121 68.2266 108.551 68.0234 108.879 67.7188C109.215 67.4141 109.441 67.0156 109.559 66.5234C109.738 65.7734 109.586 65.125 109.102 64.5781C108.617 64.0234 107.82 63.7383 106.711 63.7227L103.523 63.7109ZM101.367 60.7109L107.191 60.6641C108.48 60.6641 109.547 61.0078 110.391 61.6953C111.234 62.375 111.812 63.1875 112.125 64.1328C112.445 65.0703 112.48 66.0742 112.23 67.1445C111.996 68.1914 111.531 69.0742 110.836 69.793C110.148 70.5039 109.305 70.9922 108.305 71.2578C107.312 71.5234 106.254 71.5273 105.129 71.2695C103.988 71.0117 102.918 70.3086 101.918 69.1602C101.418 70.1758 100.906 70.8086 100.383 71.0586C99.8047 71.332 99.1758 71.4648 98.4961 71.457H97.3359L96.9141 71.2461V68.7266H97.6875C98.6172 68.6484 99.2734 68.3828 99.6562 67.9297C99.9766 67.5625 100.547 65.1562 101.367 60.7109Z" fill="url(#paint2_linear_2158_1112)"/>
<path d="M13.5469 71.4688C13.3906 72.1797 13.1406 72.8203 12.7969 73.3906C12.2656 74.2734 11.5586 74.9492 10.6758 75.418C9.79297 75.8867 8.73438 76.1211 7.5 76.1211C6.19531 76.1211 5.06641 75.8242 4.11328 75.2305C3.16797 74.6445 2.44531 73.8086 1.94531 72.7227C1.44531 71.6367 1.19531 70.3633 1.19531 68.9023V65.2695H4.25391V68.8906C4.25391 69.8281 4.39062 70.6172 4.66406 71.2578C4.9375 71.9062 5.32031 72.3945 5.8125 72.7227C6.30469 73.0508 6.86719 73.2148 7.5 73.2148C8.125 73.2148 8.67969 73.0508 9.16406 72.7227C9.65625 72.3945 10.0352 71.9062 10.3008 71.2578C10.5742 70.6094 10.7109 69.6523 10.7109 68.3867V53.6211H13.7344V68.7266H16.1016L16.6172 68.9492V71.2461L16.1016 71.4688H13.5469ZM21.4219 70.0039C20.5 70.9805 19.1523 71.4688 17.3789 71.4688H15.457L14.9297 71.2461V68.9492L15.457 68.7266H15.8555C17.5742 68.7266 18.6445 68.5 19.0664 68.0469C19.4961 67.5938 19.7109 66.8203 19.7109 65.7266V59.7969H22.9336V65.7383C22.8555 67.6055 22.3516 69.0273 21.4219 70.0039ZM17.0039 76.0977C16.5664 76.0977 16.1914 75.9414 15.8789 75.6289C15.5664 75.3242 15.4102 74.957 15.4102 74.5273C15.4102 74.0898 15.5664 73.7148 15.8789 73.4023C16.1914 73.0977 16.5664 72.9453 17.0039 72.9453C17.4492 72.9453 17.8281 73.0977 18.1406 73.4023C18.4531 73.7148 18.6094 74.0898 18.6094 74.5273C18.6094 74.9648 18.4492 75.3359 18.1289 75.6406C17.8164 75.9453 17.4414 76.0977 17.0039 76.0977ZM21.2344 76.0977C20.7969 76.0977 20.4219 75.9414 20.1094 75.6289C19.7969 75.3242 19.6406 74.957 19.6406 74.5273C19.6406 74.0898 19.7969 73.7148 20.1094 73.4023C20.4219 73.0977 20.7969 72.9453 21.2344 72.9453C21.6797 72.9453 22.0586 73.0977 22.3711 73.4023C22.6836 73.7148 22.8398 74.0898 22.8398 74.5273C22.8398 74.9648 22.6797 75.3359 22.3594 75.6406C22.0469 75.9453 21.6719 76.0977 21.2344 76.0977ZM26.3789 53.6211H29.4375V58.4492L29.4609 71.4688H26.3555L26.3789 58.4492V53.6211ZM38.4258 71.4688C38.3555 73.1797 37.8711 74.4805 36.9727 75.3711C35.9883 76.3477 34.5352 76.9102 32.6133 77.0586H30.375V74.1523H32.4727C33.4492 74.1523 34.168 73.9023 34.6289 73.4023C35.0977 72.9023 35.332 72.0898 35.332 70.9648V59.7969H38.5195V68.7266H41.2266L41.7539 68.9492V71.2461L41.2266 71.4688H38.4258ZM46.5234 70.0039C45.6016 70.9805 44.2539 71.4688 42.4805 71.4688H40.5586L40.0312 71.2461V68.9492L40.5586 68.7266H40.957C42.6758 68.7266 43.7461 68.5 44.168 68.0469C44.5977 67.5938 44.8125 66.8203 44.8125 65.7266V59.7969H48.0352V65.7383C47.957 67.6055 47.4531 69.0273 46.5234 70.0039ZM44.2852 76.0859C43.8477 76.0859 43.4727 75.9297 43.1602 75.6172C42.8477 75.3125 42.6914 74.9453 42.6914 74.5156C42.6914 74.0781 42.8477 73.7031 43.1602 73.3906C43.4727 73.0859 43.8477 72.9336 44.2852 72.9336C44.7305 72.9336 45.1094 73.0859 45.4219 73.3906C45.7344 73.7031 45.8906 74.0781 45.8906 74.5156C45.8906 74.9531 45.7305 75.3242 45.4102 75.6289C45.0977 75.9336 44.7227 76.0859 44.2852 76.0859Z" fill="url(#paint3_linear_2158_1112)"/>
<circle cx="121.888" cy="59.5317" r="4.32724" transform="rotate(-0.810455 121.888 59.5317)" fill="url(#paint4_linear_2158_1112)"/>
<circle cx="131.542" cy="59.395" r="4.32724" transform="rotate(-0.810455 131.542 59.395)" fill="#828DA9" fill-opacity="0.7"/>
<circle cx="122.039" cy="70.185" r="4.32724" transform="rotate(-0.810455 122.039 70.185)" fill="url(#paint5_linear_2158_1112)"/>
<circle cx="131.692" cy="70.0483" r="4.32724" transform="rotate(-0.810455 131.692 70.0483)" fill="#828DA9" fill-opacity="0.7"/>
<circle cx="122.189" cy="80.8384" r="4.32724" transform="rotate(-0.810455 122.189 80.8384)" fill="#828DA9" fill-opacity="0.7"/>
<circle cx="131.843" cy="80.7016" r="4.32724" transform="rotate(-0.810455 131.843 80.7016)" fill="#828DA9" fill-opacity="0.7"/>
<defs>
<linearGradient id="paint0_linear_2158_1112" x1="30.5" y1="80" x2="30.5" y2="105" gradientUnits="userSpaceOnUse">
<stop offset="0.118" stop-color="#0C1533"/>
<stop offset="1" stop-color="#243F99"/>
</linearGradient>
<linearGradient id="paint1_linear_2158_1112" x1="100" y1="81" x2="100" y2="106" gradientUnits="userSpaceOnUse">
<stop offset="0.118" stop-color="#0C1533"/>
<stop offset="1" stop-color="#243F99"/>
</linearGradient>
<linearGradient id="paint2_linear_2158_1112" x1="85.5" y1="48" x2="85.5" y2="78" gradientUnits="userSpaceOnUse">
<stop offset="0.118" stop-color="#0C1533"/>
<stop offset="1" stop-color="#243F99"/>
</linearGradient>
<linearGradient id="paint3_linear_2158_1112" x1="26.5" y1="48" x2="26.5" y2="78" gradientUnits="userSpaceOnUse">
<stop offset="0.118" stop-color="#0C1533"/>
<stop offset="1" stop-color="#243F99"/>
</linearGradient>
<linearGradient id="paint4_linear_2158_1112" x1="121.888" y1="55.2045" x2="121.888" y2="63.859" gradientUnits="userSpaceOnUse">
<stop stop-color="#0C1533"/>
<stop offset="1" stop-color="#3352BA"/>
</linearGradient>
<linearGradient id="paint5_linear_2158_1112" x1="122.039" y1="65.8578" x2="122.039" y2="74.5123" gradientUnits="userSpaceOnUse">
<stop stop-color="#0C1533"/>
<stop offset="1" stop-color="#3352BA"/>
</linearGradient>
<clipPath id="clip0_2158_1112">
<rect width="109" height="45" fill="white" transform="translate(5.28271 0.327148) rotate(0.709123)"/>
</clipPath>
</defs>
</svg>
