<?xml version="1.0" standalone="no"?>
<!DOCTYPE svg PUBLIC "-//W3C//DTD SVG 20010904//EN"
 "http://www.w3.org/TR/2001/REC-SVG-20010904/DTD/svg10.dtd">
<svg version="1.0" xmlns="http://www.w3.org/2000/svg"
 width="360.000000pt" height="360.000000pt" viewBox="0 0 360.000000 360.000000"
 preserveAspectRatio="xMidYMid meet">

<g transform="translate(0.000000,360.000000) scale(0.100000,-0.100000)"
fill="#000000" stroke="none">
<path d="M1715 3543 c-71 -42 -353 -205 -970 -558 -528 -303 -483 -276 -491
-295 -4 -8 -6 -411 -5 -895 2 -812 3 -881 19 -896 9 -9 109 -69 222 -134 113
-65 295 -171 405 -235 685 -399 897 -520 905 -520 8 0 181 99 465 265 471 276
662 387 854 496 123 70 225 130 227 132 4 4 8 1719 5 1778 -1 18 -72 60 -706
424 -209 120 -480 276 -602 347 -123 70 -233 128 -245 128 -13 -1 -50 -17 -83
-37z m344 -1017 c8 -9 11 -47 9 -107 l-3 -94 -265 0 -265 0 -3 95 c-2 80 0 97
15 107 26 20 496 18 512 -1z m600 -252 c27 -22 31 -32 31 -75 0 -59 -26 -105
-103 -183 -163 -165 -411 -292 -613 -312 l-61 -6 -6 43 c-8 61 -42 89 -107 89
-65 0 -99 -28 -107 -89 l-6 -43 -62 6 c-197 20 -422 133 -596 299 -91 86 -119
131 -119 191 0 52 19 88 50 99 8 3 387 6 842 6 l826 1 31 -26z m-1664 -302
c88 -85 246 -194 340 -234 98 -42 196 -68 308 -83 l47 -6 0 -40 c0 -75 41
-119 111 -119 67 0 108 43 109 112 l0 47 48 6 c95 13 248 56 321 90 110 53
235 139 326 227 44 43 80 78 81 78 6 0 13 -528 8 -622 l-7 -128 -889 0 -888 0
0 375 c0 206 1 375 3 375 1 0 38 -35 82 -78z m1695 -778 c0 -78 -11 -101 -55
-120 -53 -22 -1633 -21 -1675 1 -41 21 -50 43 -50 119 l0 66 890 0 890 0 0
-66z"/>
</g>
</svg>
